HIERARCHY
ROOT Hips
{
	OFFSET 0.00000 0.00000 0.00000
	CHANNELS 6 Xposition Yposition Zposition Zrotation Yrotation Xrotation 
	JOINT LHipJoint
	{
		OFFSET 0 0 0
		CHANNELS 3 Zrotation Yrotation Xrotation
		JOINT LeftUpLeg
		{
			OFFSET 1.66553 -1.82942 0.76350
			CHANNELS 3 Zrotation Yrotation Xrotation
			JOINT LeftLeg
			{
				OFFSET 2.41740 -6.64177 0.00000
				CHANNELS 3 Zrotation Yrotation Xrotation
				JOINT LeftFoot
				{
					OFFSET 2.71614 -7.46254 0.00000
					CHANNELS 3 Zrotation Yrotation Xrotation
					JOINT LeftToeBase
					{
						OFFSET 0.08005 -0.21993 1.82495
						CHANNELS 3 Zrotation Yrotation Xrotation
						End Site
						{
							OFFSET 0.00000 -0.00000 0.93441
						}
					}
				}
			}
		}
	}
	JOINT RHipJoint
	{
		OFFSET 0 0 0
		CHANNELS 3 Zrotation Yrotation Xrotation
		JOINT RightUpLeg
		{
			OFFSET -1.63725 -1.82942 0.76350
			CHANNELS 3 Zrotation Yrotation Xrotation
			JOINT RightLeg
			{
				OFFSET -2.40538 -6.60872 0.00000
				CHANNELS 3 Zrotation Yrotation Xrotation
				JOINT RightFoot
				{
					OFFSET -2.73312 -7.50919 0.00000
					CHANNELS 3 Zrotation Yrotation Xrotation
					JOINT RightToeBase
					{
						OFFSET -0.15567 -0.42769 1.93504
						CHANNELS 3 Zrotation Yrotation Xrotation
						End Site
						{
							OFFSET -0.00000 -0.00000 1.00100
						}
					}
				}
			}
		}
	}
	JOINT LowerBack
	{
		OFFSET 0 0 0
		CHANNELS 3 Zrotation Yrotation Xrotation
		JOINT Spine
		{
			OFFSET 0.00326 2.30118 -0.13017
			CHANNELS 3 Zrotation Yrotation Xrotation
			JOINT Spine1
			{
				OFFSET 0.02887 2.30677 0.00834
				CHANNELS 3 Zrotation Yrotation Xrotation
				JOINT Neck
				{
					OFFSET 0 0 0
					CHANNELS 3 Zrotation Yrotation Xrotation
					JOINT Neck1
					{
						OFFSET 0.12946 1.68326 0.00713
						CHANNELS 3 Zrotation Yrotation Xrotation
						JOINT Head
						{
							OFFSET -0.24364 1.67243 -0.16079
							CHANNELS 3 Zrotation Yrotation Xrotation
							End Site
							{
								OFFSET -0.09229 1.70819 -0.06383
							}
						}
					}
				}
				JOINT LeftShoulder
				{
					OFFSET 0 0 0
					CHANNELS 3 Zrotation Yrotation Xrotation
					JOINT LeftArm
					{
						OFFSET 3.28104 0.69567 -0.00556
						CHANNELS 3 Zrotation Yrotation Xrotation
						JOINT LeftForeArm
						{
							OFFSET 5.70706 -0.00000 -0.00000
							CHANNELS 3 Zrotation Yrotation Xrotation
							JOINT LeftHand
							{
								OFFSET 3.33243 -0.00000 0.00000
								CHANNELS 3 Zrotation Yrotation Xrotation
								JOINT LeftFingerBase
								{
									OFFSET 0 0 0
									CHANNELS 3 Zrotation Yrotation Xrotation
									JOINT LeftHandIndex1
									{
										OFFSET 0.79269 -0.00000 0.00000
										CHANNELS 3 Zrotation Yrotation Xrotation
										End Site
										{
											OFFSET 0.63909 -0.00000 0.00000
										}
									}
								}
								JOINT LThumb
								{
									OFFSET 0 0 0
									CHANNELS 3 Zrotation Yrotation Xrotation
									End Site
									{
										OFFSET 0.64884 -0.00000 0.64884
									}
								}
							}
						}
					}
				}
				JOINT RightShoulder
				{
					OFFSET 0 0 0
					CHANNELS 3 Zrotation Yrotation Xrotation
					JOINT RightArm
					{
						OFFSET -3.40955 0.64424 0.14010
						CHANNELS 3 Zrotation Yrotation Xrotation
						JOINT RightForeArm
						{
							OFFSET -5.88176 -0.00000 -0.00000
							CHANNELS 3 Zrotation Yrotation Xrotation
							JOINT RightHand
							{
								OFFSET -3.28156 -0.00000 0.00000
								CHANNELS 3 Zrotation Yrotation Xrotation
								JOINT RightFingerBase
								{
									OFFSET 0 0 0
									CHANNELS 3 Zrotation Yrotation Xrotation
									JOINT RightHandIndex1
									{
										OFFSET -0.86313 -0.00000 0.00000
										CHANNELS 3 Zrotation Yrotation Xrotation
										End Site
										{
											OFFSET -0.69587 -0.00000 0.00000
										}
									}
								}
								JOINT RThumb
								{
									OFFSET 0 0 0
									CHANNELS 3 Zrotation Yrotation Xrotation
									End Site
									{
										OFFSET -0.70650 -0.00000 0.70650
									}
								}
							}
						}
					}
				}
			}
		}
	}
}
MOTION
Frames: 11
Frame Time: .0083333
9.7924 15.4237 -23.0526 0 0 0 0 0 0 -21 0 0 0 0 0 0 0 0 0 0 0 0 0 0 21 0 0 0 0 0 0 0 0 0 0 0 0 0 0 0 0 0 0 0 0 0 0 -16 0 0 21 0 0 11 0 0 0 -8 0 0 0 0 0 0 0 0 0 0 0 0 0 0 0 0 0 0 0 0 8 0 0 0 0 0 0 0 0 0 0 0 0 0 0 0 0 0
9.7924 15.4237 -23.0526 -4.2698 -1.8346 20.4400 0.0000 0.0000 0.0000 9.4734 -6.3849 -56.8884 11.2955 18.0767 63.7375 1.9415 -7.1563 -25.0386 5.7398 -14.1714 -43.9283 0.0000 0.0000 0.0000 -10.8061 11.8836 -40.3219 -4.6003 -12.9190 39.0661 -1.6374 3.4150 -23.3374 -2.7801 10.3303 -30.0532 1.5340 -1.6506 21.5728 -0.9660 -1.8845 10.4311 -1.4920 -0.8646 -0.7814 15.3824 7.4240 4.0962 -18.5909 10.6858 0.7959 -8.0856 5.5015 1.4269 0.0000 0.0000 0.0000 -11.1529 -43.9902 32.0154 53.7915 -54.4147 -29.2306 -0.0000 0.0000 -15.1186 23.2865 18.1810 7.6485 -7.1250 0.0000 -0.0000 -4.7463 49.5950 -0.5388 0.0000 0.0000 0.0000 70.4478 3.9607 46.3495 -17.4016 27.3842 -4.2704 0.0000 0.0000 7.4172 -6.5092 25.3817 -2.8000 7.1250 -0.0000 -0.0000 14.0169 -5.0869 13.1265
9.8079 15.4092 -23.0577 -4.5287 -1.6934 20.5388 0.0000 0.0000 0.0000 9.8190 -6.4398 -57.2161 11.3794 18.1158 64.0076 1.9540 -7.1673 -25.1214 5.8326 -14.2641 -44.3062 0.0000 0.0000 0.0000 -10.6211 11.9557 -40.4271 -4.6162 -12.9381 39.1373 -1.6309 3.1195 -23.3461 -2.8159 10.3909 -30.2520 1.5122 -1.6078 21.6940 -0.9421 -1.8306 10.3959 -1.4629 -0.8402 -0.8765 15.7713 7.3696 4.9079 -19.2169 10.6231 -0.2909 -8.4163 5.5317 1.0278 -0.0000 0.0000 0.0000 -10.5986 -44.3320 31.4661 56.3616 -55.2598 -31.3319 -0.0000 0.0000 -15.6596 22.8120 19.0574 7.8198 -7.1250 0.0000 -0.0000 -5.4358 50.4455 -0.7314 -0.0000 0.0000 0.0000 69.9673 3.7526 46.6748 -16.9907 26.8455 -4.0831 0.0000 0.0000 8.2099 -3.6583 26.3695 -1.6267 7.1250 -0.0000 -0.0000 15.7117 -4.3850 15.0531
9.8221 15.3982 -23.0606 -4.6322 -1.5763 20.7098 0.0000 0.0000 0.0000 9.9849 -6.4807 -57.5784 11.4481 18.1475 64.2282 1.9631 -7.2331 -25.1782 5.8359 -14.2674 -44.3195 0.0000 0.0000 0.0000 -10.6040 11.9645 -40.6287 -4.6413 -12.9681 39.2493 -1.6324 2.7602 -23.4309 -2.9301 10.5810 -30.8793 1.4956 -1.5017 21.6156 -1.0584 -1.7025 10.4276 -1.6075 -0.7734 -0.8012 15.7329 7.3113 4.3803 -18.6731 10.5152 0.1217 -8.2049 5.4414 1.1810 0.0000 -0.0000 0.0000 -9.7643 -44.9124 30.7654 58.9836 -56.0330 -33.4968 -0.0000 0.0000 -15.9445 22.3840 19.5039 7.8292 -7.1250 0.0000 -0.0000 -5.9813 50.8439 -0.8639 0.0000 -0.0000 0.0000 69.6382 3.5674 46.9505 -16.5430 26.2514 -3.8830 0.0000 0.0000 9.0383 -1.8256 27.5552 -0.8447 7.1250 -0.0000 -0.0000 16.7715 -3.3926 16.4838
9.8352 15.3879 -23.0639 -4.7214 -1.4570 20.8423 0.0000 0.0000 0.0000 10.1188 -6.4546 -57.9072 11.5209 18.1807 64.4619 1.9634 -7.3235 -25.1757 5.8086 -14.2403 -44.2086 0.0000 0.0000 0.0000 -10.5829 11.9584 -40.7944 -4.6744 -13.0075 39.3964 -1.6423 2.7022 -23.5170 -2.9481 10.6106 -30.9776 1.4755 -1.4287 21.5292 -1.1908 -1.6177 10.4759 -1.7579 -0.7272 -0.7056 15.9339 7.3265 4.5603 -18.8261 10.5267 -0.3019 -8.3036 5.4634 1.0523 -0.0000 0.0000 0.0000 -9.1237 -45.3743 30.0169 61.4585 -56.6862 -35.5573 -0.0000 0.0000 -15.9934 22.6089 18.1417 7.3881 -7.1250 0.0000 -0.0000 -5.3970 49.4451 -0.5931 -0.0000 0.0000 0.0000 69.1848 3.3823 47.5202 -16.2671 25.8815 -3.7618 0.0000 0.0000 9.1626 0.2828 28.3494 0.1343 7.1250 -0.0000 -0.0000 17.9652 -2.7838 17.9922
9.8452 15.3733 -23.0670 -4.8897 -1.1613 21.0034 0.0000 0.0000 0.0000 10.4276 -6.5311 -58.3584 11.5963 18.2147 64.7034 1.9543 -7.4212 -25.1103 5.8658 -14.2970 -44.4408 0.0000 0.0000 0.0000 -10.4235 11.8552 -40.9596 -4.7190 -13.0602 39.5942 -1.6492 2.4923 -23.6147 -2.9992 10.6938 -31.2539 1.5603 -1.4300 21.4237 -1.2065 -1.6039 10.4737 -1.8274 -0.7160 -0.6573 15.5139 7.2509 4.1573 -18.0930 10.4213 0.4948 -7.9682 5.3732 1.2632 0.0000 0.0000 0.0000 -8.6358 -45.6370 29.4150 64.2251 -57.3345 -37.8780 -0.0000 0.0000 -16.2841 22.8391 17.5254 7.2279 -7.1250 0.0000 -0.0000 -5.0232 48.8287 -0.4754 0.0000 0.0000 0.0000 68.6575 3.2696 47.7983 -15.8844 25.3637 -3.5963 0.0000 0.0000 9.4676 2.6899 29.3579 1.3195 7.1250 -0.0000 -0.0000 19.2900 -1.9698 19.7838
9.8500 15.3564 -23.0735 -5.0287 -0.8366 21.2032 0.0000 0.0000 0.0000 10.7451 -6.6471 -58.8921 11.6703 18.2478 64.9400 1.9482 -7.5389 -25.0643 5.8961 -14.3269 -44.5633 0.0000 0.0000 0.0000 -10.3136 11.7639 -41.1948 -4.7717 -13.1220 39.8268 -1.6402 2.1598 -23.6249 -3.1109 10.8725 -31.8510 1.6200 -1.3664 21.4051 -1.1966 -1.5097 10.4046 -1.8705 -0.6679 -0.7202 15.4782 7.1542 4.4801 -18.1655 10.2881 0.0965 -8.0151 5.3269 1.0741 -0.0000 0.0000 0.0000 -7.7991 -46.0439 29.0541 67.3618 -57.9721 -40.5282 -0.0000 0.0000 -17.3319 22.9704 19.2411 7.9517 -7.1250 0.0000 -0.0000 -5.3288 50.6660 -0.7459 -0.0000 0.0000 0.0000 68.1668 3.1291 47.8748 -15.4456 24.7632 -3.4104 0.0000 0.0000 9.8761 4.7012 30.2841 2.3747 7.1250 -0.0000 -0.0000 20.3629 -1.1912 21.3395
9.8526 15.3427 -23.0809 -5.0554 -0.7163 21.2772 0.0000 0.0000 0.0000 10.8448 -6.6677 -59.1990 11.7326 18.2753 65.1388 1.9434 -7.5979 -25.0305 5.8214 -14.2530 -44.2606 0.0000 0.0000 0.0000 -10.3652 11.7896 -41.3735 -4.8289 -13.1885 40.0783 -1.6353 2.0959 -23.6038 -3.1481 10.9311 -32.0479 1.4717 -1.2186 21.5958 -1.2528 -1.3462 10.3830 -1.8788 -0.5913 -0.8297 15.7424 7.0379 4.9368 -18.5739 10.1204 -0.7480 -8.2377 5.2803 0.7643 0.0000 0.0000 0.0000 -6.9678 -46.4568 28.7853 70.3126 -58.4836 -43.0370 -0.0000 0.0000 -18.4648 23.3467 20.0943 8.4352 -7.1250 0.0000 -0.0000 -5.1896 51.6324 -0.8496 0.0000 0.0000 0.0000 67.5960 3.0512 48.2155 -15.1771 24.3922 -3.2987 0.0000 0.0000 9.7699 6.7500 30.4462 3.4322 7.1250 -0.0000 -0.0000 21.4579 -1.1117 22.7029
9.8570 15.3347 -23.0880 -4.9202 -0.6610 21.2907 0.0000 0.0000 0.0000 10.7261 -6.7734 -59.3541 11.7739 18.2935 65.2705 1.9434 -7.5684 -25.0316 5.7766 -14.2084 -44.0786 0.0000 0.0000 0.0000 -10.5655 11.6930 -41.5086 -4.8827 -13.2504 40.3133 -1.6472 2.3500 -23.6325 -3.0695 10.8067 -31.6306 1.2330 -1.0870 21.7553 -1.3575 -1.2226 10.4435 -1.8808 -0.5346 -0.8356 15.7238 6.9637 5.0862 -18.6925 9.9954 -1.1646 -8.2948 5.2324 0.6042 -0.0000 -0.0000 0.0000 -6.5076 -46.8455 28.3844 72.8161 -58.8543 -45.1755 -0.0000 0.0000 -19.0717 23.2729 19.3732 8.1199 -7.1250 0.0000 -0.0000 -5.0647 50.8570 -0.7325 -0.0000 -0.0000 0.0000 66.9387 3.0425 48.3644 -15.0349 24.1947 -3.2402 0.0000 0.0000 9.7894 8.5256 30.5911 4.3626 7.1250 -0.0000 -0.0000 22.3920 -1.0167 23.9073
9.8608 15.3274 -23.0935 -4.7201 -0.4543 21.2958 0.0000 0.0000 0.0000 10.5753 -7.0242 -59.4937 11.8015 18.3055 65.3582 1.9568 -7.6117 -25.1184 5.8624 -14.2936 -44.4268 0.0000 0.0000 0.0000 -10.7541 11.4149 -41.5553 -4.9221 -13.2955 40.4850 -1.6597 2.4870 -23.6932 -3.0134 10.7168 -31.3305 1.1203 -1.0353 21.7831 -1.5001 -1.1790 10.5544 -1.9794 -0.5103 -0.7274 15.7812 6.8576 5.3129 -18.8127 9.8386 -1.5979 -8.3709 5.1721 0.4246 0.0000 0.0000 0.0000 -6.1649 -47.2536 27.8426 75.1318 -59.1480 -47.1606 -0.0000 0.0000 -19.2783 22.7258 18.8517 7.7073 -7.1250 0.0000 -0.0000 -5.4660 50.2140 -0.7043 0.0000 0.0000 0.0000 66.3262 2.9861 48.3321 -15.0639 24.2351 -3.2521 0.0000 0.0000 9.9888 9.6132 30.6772 4.9389 7.1250 -0.0000 -0.0000 22.9572 -0.9504 24.6548
9.8622 15.3204 -23.0953 -4.6483 -0.0814 21.2204 0.0000 0.0000 0.0000 10.6076 -7.3090 -59.6076 11.8295 18.3176 65.4472 1.9606 -7.7459 -25.1387 5.9221 -14.3524 -44.6684 0.0000 0.0000 0.0000 -10.6896 11.1013 -41.4032 -4.9464 -13.3232 40.5906 -1.6621 2.2046 -23.7769 -3.1273 10.8983 -31.9377 1.2347 -1.0614 21.9085 -1.6445 -1.1910 10.6823 -2.1963 -0.5050 -0.6543 16.0668 6.7876 5.2803 -19.0014 9.7313 -1.8722 -8.4899 5.1231 0.3581 -0.0000 -0.0000 0.0000 -5.7920 -47.4433 27.3719 77.8782 -59.4374 -49.5220 -0.0000 0.0000 -19.3435 22.2506 19.2128 7.6678 -7.1250 0.0000 -0.0000 -6.0314 50.5157 -0.8224 -0.0000 -0.0000 0.0000 65.8395 2.9823 48.2962 -15.0923 24.2746 -3.2638 0.0000 0.0000 9.8989 10.9387 30.3932 5.5847 7.1250 -0.0000 -0.0000 23.6645 -1.2211 25.4483
